<svg width="16" height="18" viewBox="0 0 16 18" fill="none" xmlns="http://www.w3.org/2000/svg">
<path d="M11.2727 17.4547H1.81818C0.816 17.4547 0 16.6387 0 15.6365V5.45466C0 4.45247 0.816 3.63647 1.81818 3.63647H2.54545C2.74618 3.63647 2.90909 3.79938 2.90909 4.00011C2.90909 4.20084 2.74618 4.36375 2.54545 4.36375H1.81818C1.21673 4.36375 0.727273 4.8532 0.727273 5.45466V15.6365C0.727273 16.2379 1.21673 16.7274 1.81818 16.7274H11.2727C11.8742 16.7274 12.3636 16.2379 12.3636 15.6365V14.9092C12.3636 14.7085 12.5265 14.5456 12.7273 14.5456C12.928 14.5456 13.0909 14.7085 13.0909 14.9092V15.6365C13.0909 16.6387 12.2749 17.4547 11.2727 17.4547Z" fill="#808DB0"/>
<path d="M14.1815 13.0909H6.18146C5.17928 13.0909 4.36328 12.2749 4.36328 11.2727V1.81818C4.36328 0.816 5.17928 0 6.18146 0H14.1815C15.1836 0 15.9996 0.816 15.9996 1.81818V11.2727C15.9996 12.2749 15.1836 13.0909 14.1815 13.0909ZM6.18146 0.727273C5.58001 0.727273 5.09055 1.21673 5.09055 1.81818V11.2727C5.09055 11.8742 5.58001 12.3636 6.18146 12.3636H14.1815C14.7829 12.3636 15.2724 11.8742 15.2724 11.2727V1.81818C15.2724 1.21673 14.7829 0.727273 14.1815 0.727273H6.18146Z" fill="#808DB0"/>
</svg>
