<svg width="18" height="18" viewBox="0 0 18 18" fill="none" xmlns="http://www.w3.org/2000/svg">
<path d="M15.38 2.54605C13.7381 0.90419 11.5552 0 9.23328 0C6.91135 0 4.7284 0.90419 3.08657 2.54605C1.44474 4.18791 0.540514 6.37083 0.540514 8.69276C0.540514 10.7519 1.267 12.7331 2.59128 14.3002C2.19947 15.3993 1.41089 16.3506 0.187473 17.2022C0.0314123 17.3108 -0.0365432 17.5079 0.0193516 17.6896C0.0752828 17.8714 0.242238 17.9961 0.432405 17.9983C0.534356 17.9994 0.634231 18 0.73283 18C3.12891 18 4.55251 17.6588 5.9556 16.7457C6.99669 17.1704 8.09819 17.3856 9.23332 17.3856C11.5552 17.3856 13.7382 16.4814 15.38 14.8395C17.0219 13.1976 17.9261 11.0147 17.9261 8.6928C17.926 6.37083 17.0218 4.18791 15.38 2.54605ZM9.23328 16.511C8.13878 16.511 7.07951 16.2888 6.08481 15.8507C5.94591 15.7895 5.78519 15.8047 5.66021 15.8909C4.53327 16.6685 3.4465 17.0181 1.70436 17.1039C2.59153 16.2777 3.19457 15.3475 3.50279 14.327C3.54692 14.1809 3.51165 14.0224 3.4098 13.9087C2.12342 12.4738 1.41501 10.6214 1.41501 8.6928C1.41501 4.38176 4.92228 0.874494 9.23328 0.874494C13.5443 0.874494 17.0516 4.38176 17.0516 8.69276C17.0516 13.0038 13.5443 16.511 9.23328 16.511ZM6.04429 8.69276C6.04429 9.0544 5.75006 9.34863 5.38842 9.34863C5.02678 9.34863 4.73255 9.0544 4.73255 8.69276C4.73255 8.33112 5.02678 8.03689 5.38842 8.03689C5.7501 8.03689 6.04429 8.33112 6.04429 8.69276ZM13.734 8.69276C13.734 9.0544 13.4397 9.34863 13.0781 9.34863C12.7165 9.34863 12.4222 9.0544 12.4222 8.69276C12.4222 8.33112 12.7165 8.03689 13.0781 8.03689C13.4397 8.03689 13.734 8.33112 13.734 8.69276ZM9.88915 8.69276C9.88915 9.0544 9.59492 9.34863 9.23328 9.34863C8.87164 9.34863 8.57741 9.0544 8.57741 8.69276C8.57741 8.33112 8.87164 8.03689 9.23328 8.03689C9.59492 8.03689 9.88915 8.33112 9.88915 8.69276Z" fill="#808DB0"/>
</svg>
