<svg width="24" height="22" viewBox="0 0 24 22" fill="none" xmlns="http://www.w3.org/2000/svg">
<path d="M6.24953 17.5005C4.6486 17.5005 3.22455 16.4754 2.70745 14.9494L2.67248 14.8344C2.55053 14.4303 2.49944 14.0904 2.49944 13.7504V6.93213L0.0734182 15.0303C-0.238601 16.2215 0.472414 17.4564 1.66537 17.7854L17.1288 21.9266C17.3218 21.9766 17.5148 22.0006 17.7049 22.0006C18.7008 22.0006 19.6109 21.3396 19.8659 20.3654L20.7668 17.5005H6.24953Z" fill="#CDE3FD"/>
<path d="M24 2.25005V13.7504C24 14.9905 22.99 16.0005 21.75 16.0005H6.24953C6.14956 16.0005 6.04958 15.9904 5.95949 15.9804C4.90954 15.8505 4.08957 14.9905 4.00955 13.9304C3.99948 13.8704 3.99948 13.8103 3.99948 13.7504V2.25005C3.99948 1.01003 5.00951 0 6.24953 0H21.75C22.99 0 24 1.01003 24 2.25005Z" fill="#CDE3FD"/>
<path d="M10.9996 5.00011C10.9996 6.10463 10.1042 7.00022 8.99963 7.00022C7.89493 7.00022 6.99953 6.10463 6.99953 5.00011C6.99953 3.89559 7.89493 3 8.99963 3C10.1042 3 10.9996 3.89559 10.9996 5.00011Z" fill="#FFCF52"/>
<path d="M24 10.9402V13.7504C24 14.9904 22.99 16.0005 21.75 16.0005H6.24953C6.14956 16.0005 6.04958 15.9904 5.95949 15.9803L16.2598 5.68022C16.9398 5.00015 18.0597 5.00015 18.7398 5.68022L24 10.9402Z" fill="#007AB7"/>
<path d="M18.0597 16.0006H6.24953C6.14956 16.0006 6.04958 15.9905 5.95949 15.9805C4.90954 15.8506 4.08957 14.9906 4.00955 13.9306L8.7596 9.18032C9.43967 8.50044 10.5596 8.50044 11.2396 9.18032L18.0597 16.0006Z" fill="#0894D9"/>
</svg>
