<svg width="18" height="19" viewBox="0 0 18 19" fill="none" xmlns="http://www.w3.org/2000/svg">
<g clip-path="url(#clip0_216_36)">
<path d="M9.81838 0.839198L9.81829 0.839114C9.59901 0.619736 9.31005 0.499993 9.00011 0.499993C8.69009 0.499993 8.40111 0.619663 8.18172 0.839054L7.84178 0.499115L8.18171 0.839058L0.843337 8.1773L0.84245 8.1782C0.842377 8.17827 0.842295 8.17834 0.84222 8.17841L0.835838 8.18493C0.387255 8.6361 0.388141 9.36919 0.837981 9.81903L0.838063 9.81911C1.04396 10.0251 1.31443 10.1439 1.60557 10.1564L1.61917 10.1569L1.63271 10.1583L1.63523 10.1584H1.9279H2.4279V10.6584V16.0624C2.4279 16.8556 3.07407 17.5018 3.8676 17.5018H6.74054C6.75565 17.5018 6.76794 17.4895 6.76794 17.4744V13.2377C6.76794 12.4736 7.38872 11.8528 8.15284 11.8528H9.84738C10.6115 11.8528 11.2323 12.4736 11.2323 13.2377V17.4744C11.2323 17.4896 11.2445 17.5018 11.2597 17.5018H14.1326C14.9262 17.5018 15.5723 16.8556 15.5723 16.0624V10.6584V10.1584H16.0723H16.3437C16.6535 10.1584 16.9424 10.0388 17.162 9.81942C17.1621 9.81936 17.1621 9.81929 17.1622 9.81923M9.81838 0.839198L17.5165 7.82992C18.1614 8.47626 18.1612 9.52693 17.5157 10.1729L17.1622 9.81923M9.81838 0.839198L17.1617 8.18224V8.18225M9.81838 0.839198L17.1617 8.18225M17.1622 9.81923C17.6123 9.36858 17.6126 8.63454 17.1629 8.18348M17.1622 9.81923L17.1629 8.18341M17.1629 8.18348V8.18346V8.18345V8.18344M17.1629 8.18348L17.1628 8.18339L17.1629 8.18341M17.1629 8.18348C17.1629 8.18346 17.1629 8.18345 17.1629 8.18344M17.1629 8.18344V8.18343V8.18342V8.18341M17.1629 8.18344C17.1629 8.18343 17.1629 8.18341 17.1629 8.18341M17.1617 8.18225V8.18226M17.1617 8.18225V8.18226M17.1617 8.18226V8.18228M17.1617 8.18226V8.18228M17.1617 8.18228V8.18229M17.1617 8.18228V8.18229M17.1617 8.18229L17.1618 8.1823M17.1617 8.18229L17.1618 8.1823M17.1618 8.1823V8.18231M17.1618 8.1823V8.18231M17.1618 8.18231V8.18232M17.1618 8.18231V8.18232M17.1618 8.18232V8.18233M17.1618 8.18232V8.18233M17.1618 8.18233V8.18235M17.1618 8.18233V8.18235M17.1618 8.18235V8.18236M17.1618 8.18235V8.18236M17.1618 8.18236V8.18237M17.1618 8.18236V8.18237M17.1618 8.18237V8.18238M17.1618 8.18237V8.18238M17.1618 8.18238V8.18239M17.1618 8.18238V8.18239M17.1618 8.18239L17.1619 8.18241M17.1618 8.18239L17.1619 8.18241M17.1619 8.18241V8.18242M17.1619 8.18241V8.18242M17.1619 8.18242V8.18243M17.1619 8.18242V8.18243M17.1619 8.18243V8.18244M17.1619 8.18243V8.18244M17.1619 8.18244V8.18245M17.1619 8.18244V8.18245M17.1619 8.18245V8.18247M17.1619 8.18245V8.18247M17.1619 8.18247V8.18248M17.1619 8.18247V8.18248M17.1619 8.18248V8.18249M17.1619 8.18248V8.18249M17.1619 8.18249L17.162 8.1825M17.1619 8.18249L17.162 8.1825M17.162 8.1825V8.18251M17.162 8.1825V8.18251M17.162 8.18251V8.18253M17.162 8.18251V8.18253M17.162 8.18253V8.18254M17.162 8.18253V8.18254M17.162 8.18254V8.18255M17.162 8.18254V8.18255M17.162 8.18255V8.18256M17.162 8.18255V8.18256M17.162 8.18256V8.18257M17.162 8.18256V8.18257M17.162 8.18257V8.18259M17.162 8.18257V8.18259M17.162 8.18259L17.1621 8.1826M17.162 8.18259L17.1621 8.1826M17.1621 8.1826V8.18261M17.1621 8.1826V8.18261M17.1621 8.18261V8.18262M17.1621 8.18261V8.18262M17.1621 8.18262V8.18263M17.1621 8.18262V8.18263M17.1621 8.18263V8.18264M17.1621 8.18263V8.18264M17.1621 8.18264V8.18265M17.1621 8.18264V8.18265M17.1621 8.18265V8.18267M17.1621 8.18265V8.18267M17.1621 8.18267V8.18268M17.1621 8.18267V8.18268M17.1621 8.18268V8.18269M17.1621 8.18268V8.18269M17.1621 8.18269L17.1622 8.1827M17.1621 8.18269L17.1622 8.1827M17.1622 8.1827V8.18272M17.1622 8.1827V8.18272M17.1622 8.18272V8.18273M17.1622 8.18272V8.18273M17.1622 8.18273V8.18274M17.1622 8.18273V8.18274M17.1622 8.18274V8.18275M17.1622 8.18274V8.18275M17.1622 8.18275V8.18276M17.1622 8.18275V8.18276M17.1622 8.18276V8.18278M17.1622 8.18276V8.18278M17.1622 8.18278V8.18279M17.1622 8.18278V8.18279M17.1622 8.18279L17.1623 8.1828M17.1622 8.18279L17.1623 8.1828M17.1623 8.1828V8.18281M17.1623 8.1828V8.18281M17.1623 8.18281V8.18282M17.1623 8.18281V8.18282M17.1623 8.18282V8.18283M17.1623 8.18282V8.18283M17.1623 8.18283V8.18285M17.1623 8.18283V8.18285M17.1623 8.18285V8.18286M17.1623 8.18285V8.18286M17.1623 8.18286V8.18287M17.1623 8.18286V8.18287M17.1623 8.18287V8.18288M17.1623 8.18287V8.18288M17.1623 8.18288V8.18289M17.1623 8.18288V8.18289M17.1623 8.18289L17.1624 8.18291M17.1623 8.18289L17.1624 8.18291M17.1624 8.18291V8.18292M17.1624 8.18291V8.18292M17.1624 8.18292V8.18293M17.1624 8.18292V8.18293M17.1624 8.18293V8.18294M17.1624 8.18293V8.18294M17.1624 8.18294V8.18295M17.1624 8.18294V8.18295M17.1624 8.18295V8.18296M17.1624 8.18295V8.18296M17.1624 8.18296V8.18298M17.1624 8.18296V8.18298M17.1624 8.18298V8.18299M17.1624 8.18298V8.18299M17.1624 8.18299L17.1625 8.183M17.1624 8.18299L17.1625 8.183M17.1625 8.183V8.18301M17.1625 8.183V8.18301M17.1625 8.18301V8.18302M17.1625 8.18301V8.18302M17.1625 8.18302V8.18304M17.1625 8.18302V8.18304M17.1625 8.18304V8.18305M17.1625 8.18304V8.18305M17.1625 8.18305V8.18306M17.1625 8.18305V8.18306M17.1625 8.18306V8.18307M17.1625 8.18306V8.18307M17.1625 8.18307V8.18308M17.1625 8.18307V8.18308M17.1625 8.18308L17.1626 8.1831M17.1625 8.18308L17.1626 8.1831M17.1626 8.1831C17.1626 8.1831 17.1626 8.18311 17.1626 8.18312V8.18313V8.18314C17.1626 8.18315 17.1626 8.18315 17.1626 8.18315M17.1626 8.1831V8.18315M17.1627 8.18327L17.1628 8.1833V8.18331C17.1628 8.18332 17.1628 8.18333 17.1628 8.18335M17.1627 8.18327L17.1628 8.18335M17.1626 8.18315V8.18317V8.18318C17.1626 8.18319 17.1626 8.18319 17.1626 8.18319V8.18315ZM17.1627 8.18327C17.1627 8.18327 17.1627 8.18326 17.1627 8.18325V8.18327ZM17.1628 8.18335C17.1628 8.18336 17.1628 8.18337 17.1628 8.18338V8.18335Z" stroke="#808DB0"/>
</g>
<defs>
<clipPath id="clip0_216_36">
<rect width="18" height="19" fill="white"/>
</clipPath>
</defs>
</svg>
