<svg width="15" height="18" viewBox="0 0 15 18" fill="none" xmlns="http://www.w3.org/2000/svg">
<path d="M14.2 12.9699C13.7317 12.2711 13.091 11.3143 13.091 8.59091V7.36364C13.091 4.7744 11.3626 2.58379 9.00003 1.87761V1.63638C9.00003 0.733871 8.26577 0 7.36369 0C6.4616 0 5.72731 0.733871 5.72731 1.63638V1.87761C3.36484 2.58379 1.63638 4.7744 1.63638 7.36364V8.59091C1.63638 11.3143 0.995588 12.2711 0.527345 12.9699C0.256462 13.3746 0 13.7569 0 14.3182C0 15.6519 2.78035 16.1199 5.03455 16.2811C5.35061 17.2929 6.27839 18 7.36365 18C8.4489 18 9.37669 17.2929 9.69275 16.2811C11.9469 16.1199 14.7273 15.6519 14.7273 14.3182C14.7273 13.7569 14.4708 13.3746 14.2 12.9699ZM6.54548 1.63638C6.54548 1.18535 6.91224 0.818208 7.36365 0.818208C7.81506 0.818208 8.18186 1.18532 8.18186 1.63638V1.70173C7.91389 1.66315 7.64216 1.63638 7.36369 1.63638C7.08521 1.63638 6.81348 1.66315 6.54552 1.70173V1.63638H6.54548ZM7.36369 17.1818C6.7522 17.1818 6.21515 16.8444 5.93617 16.3324C6.51587 16.3569 7.01925 16.3637 7.36369 16.3637C7.70821 16.3637 8.21154 16.3569 8.79128 16.3324C8.51226 16.8444 7.97518 17.1818 7.36369 17.1818ZM7.36369 15.5455C3.61712 15.5455 0.818209 14.8975 0.818209 14.3182C0.818209 14.019 0.944465 13.8172 1.20733 13.4253C1.7035 12.6838 2.45459 11.5632 2.45459 8.59091V7.36364C2.45459 4.65662 4.65666 2.45455 7.36369 2.45455C10.0707 2.45455 12.2728 4.65662 12.2728 7.36364V8.59091C12.2728 11.5632 13.0238 12.6838 13.52 13.4253C13.7829 13.8172 13.9092 14.019 13.9092 14.3182C13.9091 14.8975 11.1102 15.5455 7.36369 15.5455Z" fill="#808DB0"/>
</svg>
