<svg width="16" height="20" viewBox="0 0 16 20" fill="none" xmlns="http://www.w3.org/2000/svg">
<path d="M1.15633 17.1634C1.2938 17.2384 4.56522 19 8.19981 19C12.1375 19 15.1286 17.2325 15.254 17.1573C15.2984 17.1306 15.3352 17.0929 15.3607 17.0479C15.3862 17.0028 15.3996 16.9519 15.3996 16.9001C15.3996 14.4779 14.6569 12.2614 13.3083 10.6586C12.3649 9.53742 11.1812 8.77319 9.87564 8.42138C10.6748 8.04106 11.3208 7.40024 11.7076 6.60418C12.0944 5.80812 12.1989 4.90419 12.0039 4.04089C11.809 3.17758 11.3262 2.40626 10.6349 1.85365C9.94357 1.30104 9.08485 1 8.19981 1C7.31477 1 6.45605 1.30104 5.76474 1.85365C5.07343 2.40626 4.59064 3.17758 4.3957 4.04089C4.20075 4.90419 4.30525 5.80812 4.69202 6.60418C5.07878 7.40024 5.72482 8.04106 6.52398 8.42138C5.21845 8.77319 4.03476 9.53753 3.09136 10.6586C1.74274 12.2614 1 14.4779 1 16.9001C1 16.9539 1.01452 17.0068 1.04203 17.0532C1.06954 17.0995 1.10902 17.1376 1.15633 17.1634ZM4.8999 4.90037C4.8999 4.24771 5.09344 3.6097 5.45603 3.06703C5.81863 2.52436 6.33401 2.10141 6.93699 1.85164C7.53997 1.60188 8.20347 1.53653 8.84359 1.66386C9.48371 1.79119 10.0717 2.10547 10.5332 2.56698C10.9947 3.02848 11.309 3.61647 11.4363 4.25659C11.5636 4.89671 11.4983 5.56021 11.2485 6.16319C10.9988 6.76617 10.5758 7.28155 10.0331 7.64415C9.49048 8.00674 8.85247 8.20028 8.19981 8.20028C7.32493 8.19929 6.48616 7.8513 5.86752 7.23266C5.24888 6.61402 4.90089 5.77525 4.8999 4.90037ZM3.55042 11.0449C4.76865 9.59742 6.41966 8.80027 8.19981 8.80027C9.97997 8.80027 11.631 9.59742 12.8492 11.0449C14.0747 12.5013 14.7638 14.5128 14.7983 16.725C14.1563 17.0725 11.4888 18.4 8.19981 18.4C5.15827 18.4 2.29372 17.0647 1.60148 16.718C1.63748 14.5085 2.32623 12.4998 3.55042 11.0449Z" fill="#808DB0" stroke="#808DB0" stroke-width="0.2"/>
</svg>
